<?xml version="1.0" encoding="UTF-8"?>
<svg id="Layer_1" data-name="Layer 1" xmlns="http://www.w3.org/2000/svg" viewBox="0 0 312.74 185.59">
  <defs>
    <style>
      .cls-1 {
        fill: #ed8424;
      }

      .cls-2 {
        fill: #3f4474;
      }
    </style>
  </defs>
  <path class="cls-1" d="M215.83,35.33c-47.63-54.97-131.78-6.1-106.85,61.84l-6.14,4.59C70.52,50.61,116.12-13.33,175.72,2.44c16.08,4.25,34.7,16.84,40.12,32.9Z"/>
  <path class="cls-2" d="M195.96,55.13c-4.9,6.52-19.66,14.5-23.08,21.06-4.91,9.42-6.24,29.23-7.65,40.04-2.66.15-3.18-6.44-3.38-8.29-.88-8.02,1.19-16.65-2.95-24.09l-73.18,34.17,66.87-45.85-23.49-18.84c11.18.14,26.84,10.82,37.06,10.82,9.31,0,20.08-8.99,29.82-9.02Z"/>
  <path class="cls-2" d="M262.13,141.95v8.99h-33.44l-2.71,8.99h36.15v7.19h-36.15l1.81,8.99h34.35v8.99h-31.63c-1.05,0-9.69-4.09-10.77-5.47-4.12-5.28-4.04-27.02,0-32.21,1.08-1.39,9.72-5.47,10.77-5.47h31.63Z"/>
  <path class="cls-2" d="M93.11,141.95c12.35,2.62,13.8,25.91.88,27.88l9.05,15.25c-13.29,3.58-12.06-13.17-22.47-14.48-2.89-.36-13.75-.39-15.6.89l-1.7,13.61h-7.22v-43.16c10.74,1.55,27.15-2.1,37.06,0ZM63.28,163.53h28.02c3.7,0,3.7-12.59,0-12.59h-28.02v12.59Z"/>
  <path class="cls-2" d="M164.5,185.09c-3.52.03-6.95.89-9.96-1.76-4.42-3.9-14.09-30.5-18.07-32.38-3.68-.85-2.44,1.5-3.56,3.54-3.21,5.83-11.69,24.61-15.31,28.01-2.65,2.49-9.92,5.24-9.16-.1,1.22-8.65,17.71-28.15,20.36-38.18,5.19-3.56,11.83-2.87,15.57,2.48l20.13,38.39Z"/>
  <path class="cls-2" d="M202.76,142.25c1.43-.88,9.96-1.87,8.71,2.35-1.52,5.13-14.14,27.5-17.69,32.76-5.53,8.21-10.32,11.37-18.17,3l-20.13-38.4c3.53-.04,6.93-.89,9.96,1.76,3.23,2.83,15.33,32.31,18.05,32.35,6.39-3.67,15.78-31.68,19.27-33.83Z"/>
  <polygon class="cls-2" points="48.82 141.95 48.83 150.95 28.93 150.94 28.93 182.41 19.89 185.1 19.89 150.94 0 150.95 0 141.95 48.82 141.95"/>
  <path class="cls-2" d="M278.4,141.95v29.66c0,.32,4.2,4.49,4.52,4.49h29.83v8.99h-28.02c-.86,0-10.79-3.62-11.74-4.5-6.13-5.65-3-27.41-3.37-35.7l8.78-2.95Z"/>
  <path class="cls-1" d="M139.92,127.05c.4,3.33-3.76,1.56-5.47.95-3.62-1.29-27.11-14.51-23.43-18.94l5.16-1.63c4.36,9.04,14.1,16.87,23.73,19.62Z"/>
</svg>